<svg width="358" height="129" viewBox="0 0 358 129" fill="none" xmlns="http://www.w3.org/2000/svg">
<g filter="url(#filter0_g_770_5396)">
<path d="M9.8193 94.132C8.74737 94.132 7.84293 93.6966 7.10599 92.8256C6.36904 91.9547 6.00056 90.7488 6.00056 89.2079C6.00056 88.0689 6.23505 86.1931 6.70401 83.5803C7.23998 80.9004 7.80944 77.7852 8.41239 74.2344C9.08235 70.6837 9.65181 66.9989 10.1208 63.1802C10.5897 59.2945 10.8242 55.5762 10.8242 52.0255C10.8242 50.2836 11.2597 49.0107 12.1306 48.2067C13.0686 47.3358 14.107 46.9003 15.2459 46.9003C16.3178 46.9003 17.1218 47.5703 17.6577 48.9102C18.1937 50.2501 18.2942 52.9299 17.9592 56.9496C21.041 50.1161 24.4243 44.6225 28.109 40.4688C31.8608 36.2481 35.579 33.2333 39.2637 31.4244C42.9485 29.5485 46.2648 28.6106 49.2125 28.6106C51.1554 28.6106 52.5623 29.0126 53.4333 29.8165C54.3712 30.5535 54.8402 31.3909 54.8402 32.3288C54.8402 33.6017 54.3042 34.6067 53.2323 35.3436C52.2273 36.0136 50.452 36.8175 47.9061 37.7555C44.9583 38.8944 42.245 40.2343 39.7662 41.7752C37.3544 43.2491 35.043 45.1919 32.8322 47.6038C30.6883 50.0156 28.578 53.0974 26.5011 56.8491C24.4243 60.5339 22.3474 65.0895 20.2706 70.5162C18.1937 75.9428 15.9829 82.4748 13.638 90.1123C13.2361 91.5862 12.7001 92.6246 12.0301 93.2276C11.4272 93.8305 10.6902 94.132 9.8193 94.132ZM52.2713 94.8355C49.7255 94.8355 47.6151 93.6631 45.9402 91.3182C44.3324 88.9064 43.5284 85.7911 43.5284 81.9724C43.5284 78.4216 44.3994 74.9044 46.1412 71.4206C47.9501 67.9368 50.3284 64.5871 53.2762 61.3713C56.224 58.1555 59.4398 55.2077 62.9236 52.5279C66.4073 49.7811 69.8911 47.4028 73.3748 45.3929C76.9256 43.3831 80.1749 41.8087 83.1227 40.6698C86.0704 39.5308 88.4153 38.9614 90.1572 38.9614C91.0951 38.9614 91.8655 39.1624 92.4685 39.5643C93.0715 39.8993 93.3729 40.5358 93.3729 41.4737C93.3729 42.0767 93.1385 42.6461 92.6695 43.1821C92.7365 43.1821 92.8035 43.1821 92.8705 43.1821C94.3444 43.1821 95.0813 44.053 95.0813 45.7949C95.0813 46.3979 94.8468 47.6373 94.3779 49.5131C93.9089 51.322 93.3729 53.5998 92.77 56.3467C92.167 59.0935 91.6311 62.1418 91.1621 65.4915C90.6931 68.7743 90.4586 72.1241 90.4586 75.5408C90.4586 78.4216 91.5641 79.862 93.7749 79.862C96.2537 79.862 98.7661 79.2926 101.312 78.1536C103.858 77.0147 106.337 75.6413 108.748 74.0334C111.16 72.3585 113.371 70.7172 115.381 69.1093C117.391 67.4344 119.099 66.0275 120.506 64.8886C121.913 63.7496 122.918 63.1802 123.521 63.1802C124.057 63.1802 124.526 63.3477 124.928 63.6826C125.33 64.0176 125.531 64.5536 125.531 65.2905C125.531 65.9605 124.861 67.1664 123.521 68.9083C122.181 70.6502 120.406 72.6265 118.195 74.8374C115.984 77.0482 113.505 79.1921 110.758 81.2689C108.011 83.3458 105.198 85.0542 102.317 86.3941C99.436 87.734 96.6892 88.4039 94.0764 88.4039C92.0665 88.4039 90.2242 87.801 88.5493 86.595C86.9414 85.3221 85.635 83.1783 84.63 80.1635C83.6921 77.1487 83.2231 72.995 83.2231 67.7024V65.19C79.9404 70.6167 76.4901 75.5743 72.8724 80.063C69.3216 84.5517 65.7709 88.1359 62.2201 90.8158C58.7364 93.4956 55.4201 94.8355 52.2713 94.8355ZM88.2478 46.1969C87.9128 46.3309 87.4439 46.5318 86.8409 46.7998C83.7591 48.2067 80.5433 49.9486 77.1936 52.0255C73.9108 54.1023 70.695 56.4137 67.5462 58.9595C64.4645 61.5053 61.6841 64.1516 59.2053 66.8984C56.7265 69.6452 54.7501 72.4255 53.2762 75.2393C51.8023 78.0531 51.0654 80.8 51.0654 83.4798C51.0654 84.3507 51.2329 85.0207 51.5679 85.4896C51.9698 85.9586 52.6398 86.1931 53.5777 86.1931C54.9176 86.1931 56.6595 85.3556 58.8033 83.6808C60.9472 81.9389 63.292 79.661 65.8379 76.8472C68.4507 74.0334 71.0635 70.9181 73.6763 67.5014C76.2891 64.0846 78.768 60.6344 81.1128 57.1506C83.5246 53.6668 85.6015 50.4511 87.3434 47.5033C87.6113 47.0343 87.9128 46.5988 88.2478 46.1969ZM84.1276 33.9367C82.5197 33.9367 81.7158 32.9988 81.7158 31.1229C81.7158 30.252 82.0507 28.9791 82.7207 27.3042C83.3906 25.6293 84.2616 23.7199 85.3335 21.5761C86.4054 19.4322 87.5443 17.2214 88.7503 14.9435C90.0232 12.6657 91.2626 10.5219 92.4685 8.51199C92.8705 7.77504 93.3729 7.17209 93.9759 6.70312C94.6458 6.23415 95.3828 5.99967 96.1867 5.99967C96.9237 5.99967 97.7611 6.46864 98.6991 7.40657C99.637 8.27751 100.106 9.55042 100.106 11.2253C100.106 11.8953 99.6705 13.0342 98.7996 14.6421C97.9286 16.25 96.8232 18.0923 95.4833 20.1692C94.1434 22.246 92.77 24.2894 91.3631 26.2993C89.9562 28.3091 88.6833 30.0845 87.5443 31.6254C87.0084 32.3623 86.4724 32.9318 85.9365 33.3338C85.4675 33.7357 84.8645 33.9367 84.1276 33.9367ZM119.756 122.069C118.617 122.069 117.713 121.667 117.043 120.863C116.44 120.059 116.139 118.518 116.139 116.24C116.139 112.958 116.373 109.139 116.842 104.784C117.311 100.43 117.947 95.8069 118.751 90.9162C119.622 86.0256 120.56 81.1349 121.565 76.2443C122.637 71.3536 123.742 66.6974 124.881 62.2757C126.087 57.8541 127.26 53.9348 128.399 50.5181C129.538 47.0343 130.576 44.2875 131.514 42.2776C132.519 40.2678 133.39 39.2629 134.127 39.2629C135.4 39.2629 136.405 39.6313 137.142 40.3683C137.946 41.1052 138.347 42.2106 138.347 43.6845C138.347 45.5604 137.778 48.6087 136.639 52.8294C135.5 56.9831 134.026 62.4097 132.217 69.1093C133.892 66.0275 135.701 62.8117 137.644 59.4619C139.587 56.1122 141.63 52.8629 143.774 49.7141C145.918 46.4983 148.062 43.6175 150.206 41.0717C152.416 38.5259 154.56 36.4825 156.637 34.9416C158.714 33.4008 160.724 32.6303 162.667 32.6303C164.744 32.6303 166.586 33.3003 168.194 34.6402C169.802 35.9131 171.041 37.655 171.912 39.8658C172.85 42.0097 173.319 44.4215 173.319 47.1013C173.319 52.6619 172.381 58.055 170.505 63.2807C168.629 68.4393 166.017 73.0955 162.667 77.2492C159.384 81.3359 155.498 84.5852 151.01 86.997C146.588 89.4089 141.798 90.6148 136.639 90.6148C134.696 90.6148 132.954 90.5143 131.413 90.3133C129.873 90.1123 128.533 89.8778 127.394 89.6098C126.59 94.0315 125.819 98.5872 125.082 103.277C124.345 107.967 123.608 112.958 122.872 118.25C122.671 119.657 122.336 120.629 121.867 121.165C121.398 121.768 120.694 122.069 119.756 122.069ZM164.476 40.2678C163.069 40.2678 161.394 41.0717 159.451 42.6796C157.575 44.2875 155.532 46.4313 153.321 49.1112C151.177 51.724 149 54.6383 146.789 57.8541C144.578 61.0028 142.434 64.2186 140.357 67.5014C138.28 70.7842 136.371 73.8324 134.629 76.6462C132.954 79.46 131.581 81.8049 130.509 83.6808C135.735 83.5468 140.324 82.5083 144.277 80.5655C148.229 78.5556 151.613 76.0098 154.426 72.928C157.24 69.7792 159.518 66.396 161.26 62.7782C163.069 59.0935 164.375 55.5427 165.179 52.126C165.983 48.6422 166.385 45.6274 166.385 43.0816C166.385 41.2057 165.749 40.2678 164.476 40.2678ZM187.212 92.7251C185.939 92.7251 184.8 92.2562 183.795 91.3182C182.79 90.3133 182.288 88.7724 182.288 86.6955C182.288 85.2216 182.489 83.1783 182.891 80.5655C183.293 77.8857 183.829 74.9714 184.499 71.8226C185.169 68.6738 185.872 65.5585 186.609 62.4767C187.413 59.3279 188.217 56.5141 189.021 54.0353C189.825 51.5565 190.528 49.7141 191.131 48.5082C191.667 47.5703 192.17 46.9673 192.639 46.6993C193.175 46.4313 193.677 46.2974 194.146 46.2974C195.084 46.2974 195.888 46.5988 196.558 47.2018C197.295 47.8048 197.663 48.9772 197.663 50.7191C197.663 51.724 197.462 53.3989 197.061 55.7437C196.726 58.0215 196.257 60.7014 195.654 63.7831C195.118 66.7979 194.515 69.9132 193.845 73.129C193.242 76.2778 192.639 79.2926 192.036 82.1734C191.433 85.0542 190.964 87.466 190.629 89.4089C190.361 90.4808 189.892 91.3182 189.222 91.9212C188.619 92.4571 187.949 92.7251 187.212 92.7251ZM197.061 37.1525C195.52 37.1525 194.046 36.6835 192.639 35.7456C191.299 34.8077 190.629 33.3003 190.629 31.2234C190.629 29.4815 191.031 28.0746 191.835 27.0027C192.706 25.9308 193.711 25.1603 194.85 24.6914C196.056 24.1554 197.094 23.8874 197.965 23.8874C198.836 23.8874 199.807 24.0884 200.879 24.4904C202.018 24.8254 202.99 25.4953 203.794 26.5002C204.597 27.4382 204.999 28.8451 204.999 30.7209C204.999 31.9939 204.564 33.1328 203.693 34.1377C202.822 35.0756 201.75 35.8126 200.477 36.3485C199.271 36.8845 198.132 37.1525 197.061 37.1525ZM250.102 41.6747C251.911 37.32 253.619 32.8313 255.227 28.2086C256.902 23.5859 258.409 18.8628 259.749 14.0391C260.151 12.6992 260.754 11.6273 261.558 10.8233C262.429 9.95239 263.434 9.51693 264.573 9.51693C265.377 9.51693 266.047 9.8184 266.583 10.4214C267.186 11.0243 267.487 11.8283 267.487 12.8332C267.487 14.1061 266.985 16.3169 265.98 19.4657C265.042 22.6145 263.836 26.6007 262.362 31.4244C260.955 36.2481 259.515 41.8087 258.041 48.1062C256.634 54.3368 255.428 61.2373 254.423 68.8078C253.485 76.3783 253.016 84.4512 253.016 93.0266C253.016 94.9025 252.614 96.4434 251.81 97.6493C251.006 98.9222 250.035 99.5586 248.896 99.5586C248.226 99.5586 247.59 99.3912 246.987 99.0562C246.384 98.7212 245.848 97.9173 245.379 96.6443C244.977 95.4384 244.642 93.5291 244.374 90.9162C244.106 88.2364 243.972 84.6187 243.972 80.063C243.972 76.5792 244.173 72.794 244.575 68.7073C241.493 74.2679 238.143 79.1251 234.526 83.2788C230.975 87.3655 227.525 90.5143 224.175 92.7251C220.892 94.936 218.078 96.0414 215.733 96.0414C212.853 96.0414 210.508 95.07 208.699 93.1271C206.957 91.2512 206.086 88.4374 206.086 84.6857C206.086 81.4029 206.856 78.0196 208.397 74.5359C209.938 71.0521 211.982 67.6354 214.527 64.2856C217.073 60.8688 219.887 57.6531 222.969 54.6383C226.051 51.6235 229.132 48.9772 232.214 46.6993C235.363 44.3545 238.277 42.5456 240.957 41.2727C243.637 39.9328 245.814 39.2629 247.489 39.2629C248.159 39.2629 248.762 39.4973 249.298 39.9663C249.834 40.4353 250.102 41.0047 250.102 41.6747ZM248.796 44.79C248.327 45.2589 247.757 45.7279 247.087 46.1969C246.417 46.6658 245.68 47.1683 244.876 47.7043C241.929 49.7811 238.679 52.1929 235.128 54.9398C231.645 57.6196 228.295 60.5674 225.079 63.7831C221.93 66.9319 219.351 70.2482 217.341 73.7319C215.331 77.2157 214.326 80.8 214.326 84.4847C214.326 86.0926 215.13 86.8965 216.738 86.8965C218.949 86.8965 221.361 85.8581 223.974 83.7812C226.654 81.6374 229.4 78.6896 232.214 74.9379C235.028 71.1191 237.842 66.6639 240.656 61.5723C243.469 56.4137 246.183 50.8195 248.796 44.79ZM278.479 94.8355C275.933 94.8355 273.822 93.6631 272.148 91.3182C270.54 88.9064 269.736 85.7911 269.736 81.9724C269.736 78.4216 270.607 74.9044 272.349 71.4206C274.157 67.9368 276.536 64.5871 279.484 61.3713C282.431 58.1555 285.647 55.2077 289.131 52.5279C292.615 49.7811 296.098 47.4028 299.582 45.3929C303.133 43.3831 306.382 41.8087 309.33 40.6698C312.278 39.5308 314.623 38.9614 316.365 38.9614C317.302 38.9614 318.073 39.1624 318.676 39.5643C319.279 39.8993 319.58 40.5358 319.58 41.4737C319.58 42.0767 319.346 42.6461 318.877 43.1821C318.944 43.1821 319.011 43.1821 319.078 43.1821C320.552 43.1821 321.289 44.053 321.289 45.7949C321.289 46.3979 321.054 47.6373 320.585 49.5131C320.116 51.322 319.58 53.5998 318.977 56.3467C318.374 59.0935 317.838 62.1418 317.369 65.4915C316.9 68.7743 316.666 72.1241 316.666 75.5408C316.666 78.4216 317.771 79.862 319.982 79.862C322.461 79.862 324.973 79.2926 327.519 78.1536C330.065 77.0147 332.544 75.6413 334.956 74.0334C337.368 72.3585 339.578 70.7172 341.588 69.1093C343.598 67.4344 345.306 66.0275 346.713 64.8886C348.12 63.7496 349.125 63.1802 349.728 63.1802C350.264 63.1802 350.733 63.3477 351.135 63.6826C351.537 64.0176 351.738 64.5536 351.738 65.2905C351.738 65.9605 351.068 67.1664 349.728 68.9083C348.388 70.6502 346.613 72.6265 344.402 74.8374C342.191 77.0482 339.712 79.1921 336.966 81.2689C334.219 83.3458 331.405 85.0542 328.524 86.3941C325.643 87.734 322.897 88.4039 320.284 88.4039C318.274 88.4039 316.432 87.801 314.757 86.595C313.149 85.3221 311.842 83.1783 310.837 80.1635C309.899 77.1487 309.43 72.995 309.43 67.7024V65.19C306.148 70.6167 302.697 75.5743 299.08 80.063C295.529 84.5517 291.978 88.1359 288.427 90.8158C284.944 93.4956 281.627 94.8355 278.479 94.8355ZM314.455 46.1969C314.12 46.3309 313.651 46.5318 313.048 46.7998C309.966 48.2067 306.751 49.9486 303.401 52.0255C300.118 54.1023 296.902 56.4137 293.754 58.9595C290.672 61.5053 287.891 64.1516 285.413 66.8984C282.934 69.6452 280.957 72.4255 279.484 75.2393C278.01 78.0531 277.273 80.8 277.273 83.4798C277.273 84.3507 277.44 85.0207 277.775 85.4896C278.177 85.9586 278.847 86.1931 279.785 86.1931C281.125 86.1931 282.867 85.3556 285.011 83.6808C287.155 81.9389 289.499 79.661 292.045 76.8472C294.658 74.0334 297.271 70.9181 299.884 67.5014C302.496 64.0846 304.975 60.6344 307.32 57.1506C309.732 53.6668 311.809 50.4511 313.551 47.5033C313.819 47.0343 314.12 46.5988 314.455 46.1969Z" fill="#111111"/>
</g>
<defs>
<filter id="filter0_g_770_5396" x="0" y="0" width="357.738" height="128.069" filterUnits="userSpaceOnUse" color-interpolation-filters="sRGB">
<feFlood flood-opacity="0" result="BackgroundImageFix"/>
<feBlend mode="normal" in="SourceGraphic" in2="BackgroundImageFix" result="shape"/>
<feTurbulence type="fractalNoise" baseFrequency="1 1" numOctaves="3" seed="5073" />
<feDisplacementMap in="shape" scale="12" xChannelSelector="R" yChannelSelector="G" result="displacedImage" width="100%" height="100%" />
<feMerge result="effect1_texture_770_5396">
<feMergeNode in="displacedImage"/>
</feMerge>
</filter>
</defs>
</svg>
